<?xml version="1.0" encoding="UTF-8"?>
<svg xmlns="http://www.w3.org/2000/svg" viewBox="0 0 100 100">
  <defs>
    <style>
      .cls-1 {
        opacity: .13;
      }

      .cls-1, .cls-2 {
        fill: #424242;
      }

      .cls-3 {
        fill: #5555e0;
      }

      .cls-4 {
        fill: #353534;
      }

      .cls-5 {
        fill: #3d3d3d;
      }

      .cls-6 {
        fill: #4f3c5e;
      }

      .cls-7 {
        fill: #80e7ff;
      }

      .cls-8 {
        fill: #75daf2;
      }

      .cls-9 {
        fill: #5b2463;
      }
    </style>
  </defs>
  <g id="icon_3" data-name="icon 3">
    <rect class="cls-3" x="-.16" width="100" height="100" rx="6.28" ry="6.28"/>
    <polygon class="cls-6" points="39.18 44 39.16 78.19 46.14 79.42 46.5 46.01 39.18 44"/>
    <polygon class="cls-6" points="4.58 35.78 4.56 70.73 12.44 71.98 12.84 37.84 4.58 35.78"/>
    <polygon class="cls-6" points="86.63 56.23 86.6 86.7 93.59 87.79 93.94 58.03 86.63 56.23"/>
    <polygon class="cls-6" points="63.44 50.55 63.42 82.29 70.4 83.42 70.76 52.42 63.44 50.55"/>
    <polygon class="cls-9" points="-.27 35.5 99.95 59.66 99.95 66.59 -.27 43.25 -.27 35.5"/>
    <polygon class="cls-9" points="-.29 44.31 99.92 68.47 99.92 75.4 -.29 52.06 -.29 44.31"/>
    <polygon class="cls-9" points="-.16 52.99 100.05 77.15 100.05 84.08 -.16 60.74 -.16 52.99"/>
    <polygon class="cls-9" points="-.27 61.33 99.95 85.49 99.95 92.42 -.27 69.08 -.27 61.33"/>
    <path class="cls-4" d="M43.05,47.62s3.87-8.37,5.22-7.74l1.97,3.65s-6.49,9.24-5.19,10.63-3.29-2.39-3.29-2.39l1.29-4.15Z"/>
    <path class="cls-4" d="M18.36,85s-1.09,9.15.39,9.33l3.59-2.08s-.68-11.27,1.15-11.77-4.05.31-4.05.31l-1.08,4.21Z"/>
    <path class="cls-4" d="M7.18,86.36s-1.09,9.15.39,9.33l3.59-2.08s-.68-11.27,1.15-11.77-4.05.31-4.05.31l-1.08,4.21Z"/>
    <path class="cls-4" d="M30.91,45.41s3.65-8.46,5.02-7.87l2.06,3.6s-6.25,9.4-4.91,10.75-3.35-2.31-3.35-2.31l1.18-4.18Z"/>
    <path class="cls-8" d="M9.42,74.94s.1-8.8,6.71-9.67c0,0-3.41-7.01,6.51-9.58,0,0-.19-5.7,7.78-7.5,0,0,11.76-8.24,16.14,6.64,0,0,.05,2.48-1.64,3.25,0,0-1.05,8.49-6.55,9.98,0,0-.36,5.16-3.08,5.86,0,0-2.52,5.71-7.45,4.13,0,0-1.42,3.53-7.29,3.34l-11.14-6.45Z"/>
    <path class="cls-7" d="M36.55,44.61s-.37-2.03,1.92-2.38c0,0,5.72-2.77,5.11,2.04,0,0,1.64,1.26-.94,2.6,0,0-.15,4.2-3.57,3.69s-3.39-2.63-3.39-2.63c0,0-1.26-2.59.86-3.32Z"/>
  </g>
  <g id="Layer_19" data-name="Layer 19">
    <path class="cls-2" d="M17.9,74.37s3.85-1.45,5.11-2.41.52,2.67-3.33,6.63l-1.79-4.21Z"/>
    <path class="cls-2" d="M2.88,75.01s3.11,1.72,5.93.58l-1.13,4.57s-5.97-2.48-4.8-5.15Z"/>
    <path class="cls-5" d="M20.58,78.38c.82,3.63-1.46,7.23-5.08,8.05s-7.23-1.46-8.05-5.08c-.48-2.11.09-4.21,1.37-5.76.92-1.11,2.2-1.94,3.71-2.29,3.63-.82,7.23,1.46,8.05,5.08Z"/>
    <path class="cls-2" d="M19.65,78.44c.76,3.38-1.36,6.74-4.74,7.5s-6.74-1.36-7.5-4.74c-.44-1.97.09-3.92,1.28-5.37.85-1.04,2.05-1.81,3.46-2.13,3.38-.76,6.74,1.36,7.5,4.74Z"/>
    <path class="cls-1" d="M18.96,75.11s3.85-1.45,5.11-2.41.52,2.67-3.33,6.63l-1.79-4.21Z"/>
    <path class="cls-7" d="M6.48,77.07s3.98,1.61,6.8-.45c0,0,5.42,1.45,5.7-1.29,0,0,3.14-.33,1.62-2.69,0,0-.08-1.47-2.18-1.27,0,0-2.72-2.68-5.55-1.41,0,0-5.8-.03-6.51,2.96,0,0-2.85,2.68.11,4.15Z"/>
    <path class="cls-4" d="M96.18-4.6s5.63-7.3,6.81-6.39l1.11,4s-8.38,7.56-7.42,9.2-2.67-3.06-2.67-3.06l2.18-3.76Z"/>
    <path class="cls-4" d="M63.8,26.35s-3.1,8.68-1.7,9.18l3.97-1.23s1.84-11.14,3.74-11.22-4.02-.6-4.02-.6l-1.99,3.86Z"/>
    <path class="cls-4" d="M52.59,25.18s-3.1,8.68-1.7,9.18l3.97-1.23s1.84-11.14,3.74-11.22-4.02-.6-4.02-.6l-1.99,3.86Z"/>
    <path class="cls-8" d="M57.32,14.55s2.05-8.56,8.69-7.93c0,0-1.76-7.6,8.48-7.89,0,0,1.09-5.6,9.26-5.58,0,0,13.3-5.41,14.25,10.07,0,0-.5,2.43-2.32,2.8,0,0-2.91,8.04-8.6,8.27,0,0-1.5,4.95-4.3,5.02,0,0-3.73,5.01-8.18,2.37,0,0-2.17,3.12-7.85,1.63l-9.42-8.77Z"/>
    <path class="cls-2" d="M65.71,15.88s4.08-.56,5.52-1.21-.09,2.71-4.72,5.72l-.8-4.51Z"/>
    <path class="cls-2" d="M50.93,13.16s2.64,2.37,5.65,1.88l-2.12,4.2s-5.27-3.75-3.53-6.08Z"/>
    <path class="cls-5" d="M67.43,20.39c0,3.72-3.03,6.72-6.75,6.71s-6.72-3.03-6.71-6.75c0-2.16,1.03-4.08,2.62-5.31,1.14-.88,2.58-1.41,4.13-1.4,3.72,0,6.72,3.03,6.71,6.75Z"/>
    <path class="cls-2" d="M66.51,20.24c0,3.46-2.82,6.27-6.29,6.26s-6.27-2.82-6.26-6.29c0-2.02.96-3.81,2.44-4.95,1.06-.82,2.4-1.31,3.85-1.31,3.46,0,6.27,2.82,6.26,6.29Z"/>
    <path class="cls-1" d="M66.58,16.83s4.08-.56,5.52-1.21-.09,2.71-4.72,5.72l-.8-4.51Z"/>
    <path class="cls-7" d="M53.98,15.97s3.52,2.46,6.73,1.07c0,0,4.96,2.62,5.85.01,0,0,3.13.38,2.18-2.27,0,0,.25-1.45-1.84-1.72,0,0-2.05-3.21-5.1-2.61,0,0-5.64-1.32-7,1.44,0,0-3.37,1.98-.82,4.07Z"/>
  </g>
</svg>