<?xml version="1.0" encoding="UTF-8"?>
<svg id="Layer_1" data-name="Layer 1" xmlns="http://www.w3.org/2000/svg" viewBox="0 0 100 100">
  <defs>
    <style>
      .cls-1 {
        isolation: isolate;
        opacity: .13;
      }

      .cls-1, .cls-2 {
        fill: #424242;
      }

      .cls-3 {
        fill: #5555e0;
      }

      .cls-4 {
        fill: #353534;
      }

      .cls-5 {
        fill: #3d3d3d;
      }

      .cls-6 {
        fill: #4f3c5e;
      }

      .cls-7 {
        fill: #80e7ff;
      }

      .cls-8 {
        fill: #75daf2;
      }

      .cls-9 {
        fill: #5b2463;
      }
    </style>
  </defs>
  <g id="icon_3" data-name="icon 3">
    <rect class="cls-3" x="-.16" width="100" height="100" rx="6.28" ry="6.28"/>
    <polygon class="cls-6" points="39.18 44 39.16 78.19 46.14 79.42 46.5 46.01 39.18 44"/>
    <polygon class="cls-6" points="4.58 35.78 4.56 70.73 12.44 71.98 12.84 37.84 4.58 35.78"/>
    <polygon class="cls-6" points="86.63 56.23 86.6 86.7 93.59 87.79 93.94 58.03 86.63 56.23"/>
    <polygon class="cls-6" points="63.44 50.55 63.42 82.29 70.4 83.42 70.76 52.42 63.44 50.55"/>
    <polygon class="cls-9" points="-.27 35.5 99.95 59.66 99.95 66.59 -.27 43.25 -.27 35.5"/>
    <polygon class="cls-9" points="-.29 44.31 99.92 68.47 99.92 75.4 -.29 52.06 -.29 44.31"/>
    <polygon class="cls-9" points="-.16 52.99 100.05 77.15 100.05 84.08 -.16 60.74 -.16 52.99"/>
    <polygon class="cls-9" points="-.27 61.33 99.95 85.49 99.95 92.42 -.27 69.08 -.27 61.33"/>
    <path class="cls-4" d="M66.77,23.65s5.62-7.31,6.79-6.4l1.12,4s-8.36,7.58-7.4,9.22c.96,1.64-2.68-3.06-2.68-3.06,0,0,2.17-3.76,2.17-3.76Z"/>
    <path class="cls-4" d="M34.47,54.67s-3.08,8.69-1.68,9.18l3.96-1.24s1.82-11.14,3.71-11.23-4.02-.59-4.02-.59l-1.98,3.87h.01Z"/>
    <path class="cls-4" d="M23.26,53.53s-3.08,8.69-1.68,9.18l3.96-1.24s1.82-11.14,3.71-11.23-4.02-.59-4.02-.59l-1.98,3.87h.01Z"/>
    <path class="cls-4" d="M55.42,18.81s5.43-7.45,6.63-6.57l1.22,3.97s-8.17,7.8-7.16,9.41-2.76-2.99-2.76-2.99c0,0,2.07-3.82,2.07-3.82Z"/>
    <path class="cls-8" d="M27.96,42.89s2.03-8.56,8.67-7.95c0,0-1.78-7.59,8.46-7.91,0,0,1.07-5.6,9.24-5.6,0,0,13.29-5.44,14.28,10.03,0,0-.5,2.43-2.31,2.81,0,0-2.89,8.05-8.58,8.29,0,0-1.49,4.95-4.29,5.03,0,0-3.71,5.02-8.17,2.39,0,0-2.16,3.13-7.85,1.65l-9.44-8.74h0Z"/>
    <path class="cls-7" d="M61.1,19.28s.08-2.06,2.39-1.9c0,0,6.19-1.44,4.54,3.12,0,0,1.32,1.59-1.49,2.33,0,0-1.07,4.07-4.29,2.82s-2.72-3.31-2.72-3.31c0,0-.66-2.81,1.57-3.05h0Z"/>
  </g>
  <g id="Layer_19" data-name="Layer 19">
    <path class="cls-2" d="M36.35,44.2s4.07-.57,5.52-1.23-.08,2.72-4.7,5.73l-.81-4.5h0Z"/>
    <path class="cls-2" d="M21.57,41.52s2.65,2.36,5.66,1.87l-2.11,4.21s-5.28-3.73-3.55-6.08Z"/>
    <path class="cls-5" d="M38.08,48.7c0,3.72-3.01,6.73-6.73,6.73s-6.73-3.01-6.73-6.73c0-2.16,1.02-4.09,2.6-5.32,1.14-.89,2.57-1.41,4.13-1.41,3.72,0,6.73,3.01,6.73,6.73Z"/>
    <path class="cls-2" d="M37.17,48.56c0,3.46-2.81,6.27-6.27,6.27s-6.27-2.81-6.27-6.27c0-2.02.95-3.81,2.43-4.96,1.06-.83,2.4-1.32,3.85-1.32,3.46,0,6.27,2.81,6.27,6.27h0Z"/>
    <path class="cls-1" d="M37.22,45.15s4.07-.57,5.52-1.23-.08,2.72-4.7,5.73l-.81-4.5h0Z"/>
    <path class="cls-7" d="M24.62,44.31s3.53,2.45,6.73,1.06c0,0,4.97,2.6,5.85,0,0,0,3.13.37,2.17-2.27,0,0,.25-1.45-1.84-1.72,0,0-2.06-3.21-5.1-2.6,0,0-5.65-1.3-7,1.46,0,0-3.37,1.99-.81,4.08h0Z"/>
    <path class="cls-4" d="M23.52,87.62s8.22-4.17,8.89-2.84l-.72,4.09s-10.82,3.23-10.66,5.12-1.1-3.91-1.1-3.91l3.58-2.46h.01Z"/>
    <path class="cls-4" d="M15.36,78.35s8.11-4.38,8.82-3.07l-.62,4.11s-10.73,3.51-10.52,5.39-1.2-3.88-1.2-3.88c0,0,3.52-2.55,3.52-2.55Z"/>
    <path class="cls-8" d="M-19.8,88.22s5.53-6.85,11.25-3.43c0,0,1.67-7.62,11.04-3.48,0,0,3.39-4.59,10.76-1.06,0,0,14.34.83,8.55,15.21,0,0-1.5,1.98-3.3,1.53,0,0-6.08,6.01-11.32,3.77,0,0-3.48,3.83-6.05,2.69,0,0-5.52,2.92-8.4-1.38,0,0-3.3,1.89-7.79-1.9l-4.74-11.96h0Z"/>
    <path class="cls-7" d="M20.28,81.23s.97-1.83,2.98-.68c0,0,6.21,1.37,2.75,4.77,0,0,.5,2-2.35,1.46,0,0-2.72,3.21-5.09.69s-1.03-4.16-1.03-4.16c0,0,.62-2.82,2.73-2.08h.01Z"/>
    <path class="cls-4" d="M86.01,5.33s-2.22,8.95-.77,9.3l3.82-1.62s.72-11.27,2.6-11.53-4.06-.19-4.06-.19c0,0-1.59,4.04-1.59,4.04Z"/>
    <path class="cls-4" d="M74.74,5.29s-2.22,8.95-.77,9.3l3.82-1.62s.72-11.27,2.6-11.53-4.06-.19-4.06-.19c0,0-1.59,4.04-1.59,4.04Z"/>
    <path class="cls-8" d="M78.38-5.76s1.19-8.72,7.85-8.76c0,0-2.51-7.38,7.64-8.69,0,0,.52-5.68,8.66-6.47,0,0,12.7-6.71,15.19,8.59,0,0-.26,2.47-2.03,3.02,0,0-2.09,8.29-7.74,9.09,0,0-1,5.07-3.78,5.43,0,0-3.21,5.36-7.9,3.17,0,0-1.85,3.33-7.65,2.41l-10.25-7.78h0Z"/>
    <path class="cls-5" d="M89.02-.96c.36,3.7-2.34,6.99-6.04,7.36s-6.99-2.34-7.36-6.04c-.21-2.15.62-4.17,2.07-5.55,1.05-.99,2.42-1.66,3.97-1.81,3.7-.36,6.99,2.34,7.36,6.04Z"/>
    <path class="cls-2" d="M88.09-1.01c.34,3.45-2.18,6.52-5.63,6.85s-6.52-2.18-6.85-5.63c-.2-2.01.57-3.88,1.93-5.17.98-.92,2.26-1.54,3.7-1.69,3.45-.34,6.52,2.18,6.85,5.63h0Z"/>
  </g>
</svg>